<?xml version="1.0" standalone="no"?> <!DOCTYPE svg PUBLIC "-//W3C//DTD SVG 1.0//EN" "http://www.w3.org/TR/2001/REC-SVG-20010904/DTD/svg10.dtd" > <svg xmlns="http://www.w3.org/2000/svg" width="100%" height="100%">
<defs >
<font id="odile-roman" horiz-adv-x="455" ><font-face
    font-family="Odile Roman"
    units-per-em="1000"
    panose-1="2 7 6 3 6 0 0 2 0 3"
    ascent="1004"
    descent="-243"
    alphabetic="0" />
<missing-glyph horiz-adv-x="846" d="M80 0V686H766V0H80ZM183 626L423 386L663 626H183ZM423 300L183 60H663L423 300ZM466 343L701 108V578L466 343ZM380 343L145 578V108L380 343Z" />
<glyph unicode=" " glyph-name="space" horiz-adv-x="250" />
<glyph unicode="!" glyph-name="exclam" horiz-adv-x="323" d="M212 425L197 217H127L113 425V686H212V425ZM228 51Q228 25 209 7T161 -12T114 6T95 51Q95 78 114 97T161 117T208 98T228 51Z" />
<glyph unicode="&quot;" glyph-name="quotedbl" horiz-adv-x="541" d="M427 686L400 411H353L326 686H427ZM215 686L187 411H141L114 686H215Z" />
<glyph unicode="#" glyph-name="numbersign" horiz-adv-x="667" d="M601 458L589 397H469L451 285H571L560 226H440L412 70H340L368 226H258L230 70H158L186 226H66L77 285H197L215 397H95L107 458H227L252 599H324L299 458H409L434 599H506L481 458H601ZM397
397H287L269 285H379L397 397Z" />
<glyph unicode="$" glyph-name="dollar" horiz-adv-x="619" d="M549 170Q549 85 489 40T338 -11V-146H283V-10Q189 1 129 54L121 -12H70V203H119L145 110Q191 52 283 39V323Q254 338 240 346T200 371T162 401T133 436T112 481T105 533Q105 597 152 644T283 696V787H338V693Q401
682 449 636L457 696H511V477H459Q453 509 447 530T428 581T392 629T338 653V384L368 368Q377 363 401 351T435 333T465 316T493 295T515 273T534 244T544 211T549 170ZM283 416V652Q242 647 215 618T188 546Q188 475 283 416ZM456 159Q456 184 448 204T420 241T385
267T338 294V39Q391 45 423 74T456 159Z" />
<glyph unicode="%" glyph-name="percent" horiz-adv-x="933" d="M868 186Q868 103 818 46T684 -12T550 46T499 186T549 322T683 376T817 322T868 186ZM712 686L280 0H225L657 686H712ZM434 506Q434 423 384 366T250 308T116 366T65 506T115 642T249 696T383 642T434
506ZM788 187Q788 251 760 295T684 339T608 295T579 187Q579 122 607 76T683 30T759 76T788 187ZM354 507Q354 571 326 615T250 659T174 615T145 507Q145 442 173 396T249 350T325 396T354 507Z" />
<glyph unicode="&amp;" glyph-name="ampersand" horiz-adv-x="782" d="M761 0H613Q533 56 487 94Q409 -12 275 -12Q166 -12 104 52T42 204Q42 264 83 318T202 404L212 408Q172 473 172 549Q172 619 215 657T315 696T413 660T454 557Q454 510 423 468T330 394L328
393Q384 303 487 197Q490 205 494 223L527 367L534 477L709 469V425H639Q622 425 611 410T582 337L551 231Q537 185 525 159Q651 40 689 40H761V0ZM390 561Q390 597 373 624T330 651Q301 651 286 621T270 548Q270 498 302 440L312 444Q390 476 390 561ZM452 124Q312
244 242 354L237 352Q192 334 168 291T144 202Q144 132 192 86T305 40Q394 40 452 124Z" />
<glyph unicode="&apos;" glyph-name="quotesingle" horiz-adv-x="329" d="M215 686L188 411H141L114 686H215Z" />
<glyph unicode="(" glyph-name="parenleft" horiz-adv-x="374" d="M341 -144H279Q163 -52 103 68T42 318Q42 446 102 564T279 775H341Q130 572 130 317Q130 193 183 75T341 -144Z" />
<glyph unicode=")" glyph-name="parenright" horiz-adv-x="374" d="M332 318Q332 189 272 69T95 -144H33Q137 -44 190 74T244 317Q244 572 33 775H95Q212 683 272 565T332 318Z" />
<glyph unicode="*" glyph-name="asterisk" horiz-adv-x="479" d="M447 404Q447 382 427 372T378 373Q325 441 244 483Q244 401 282 325Q281 304 268 293T238 281T209 292T195 325Q234 403 234 483Q199 465 166 438T120 397T99 372Q71 360 52 371T33 405T58 440Q152
448 233 490Q159 529 58 537Q32 552 32 571Q32 594 51 605T98 605Q104 597 118 582T166 542T234 498Q234 575 195 653Q197 696 238 696Q280 696 282 653Q244 577 244 498Q279 516 311 542T356 582T377 605Q404 618 425 608T447 574Q447 554 418 538Q323 530 246
490Q325 449 418 441Q447 425 447 404Z" />
<glyph unicode="+" glyph-name="plus" horiz-adv-x="599" d="M528 226H337V54H262V226H71V292H262V469H337V292H528V226Z" />
<glyph unicode="," glyph-name="comma" horiz-adv-x="280" d="M209 59Q209 39 198 13L116 -160H69L139 -8Q111 -8 91 11T71 59T91 106T140 125T189 106T209 59Z" />
<glyph unicode="-" glyph-name="hyphen" horiz-adv-x="470" d="M390 258H80V321H390V258Z" />
<glyph unicode="." glyph-name="period" horiz-adv-x="280" d="M209 83T209 55T189 8T140 -12T91 7T71 55T91 103T140 123T188 103Z" />
<glyph unicode="/" glyph-name="slash" horiz-adv-x="337" d="M347 696L60 -12H-10L276 696H347Z" />
<glyph unicode="0" glyph-name="zero" horiz-adv-x="618" d="M574 248Q574 136 503 62T309 -12T116 62T44 248Q44 359 115 432T309 505T503 432T574 248ZM465 160T465 250T425 404T309 469T194 405T153 250T193 96T309 32T424 96Z" />
<glyph unicode="1" glyph-name="one" horiz-adv-x="440" d="M392 0H74V40H190V394H64V435L275 506V40H392V0Z" />
<glyph unicode="2" glyph-name="two" horiz-adv-x="548" d="M507 152L497 0H58L61 45Q77 57 118 85T192 137T259 193T314 260T334 332Q334 385 304 411T234 438Q157 438 97 378L64 410Q95 448 150 476T257 505Q345 505 389 461T434 348Q434 321 426 296T401 248T368
208T323 169T277 137T226 105T180 76H369Q410 76 430 81T452 90T457 107L465 152H507Z" />
<glyph unicode="3" glyph-name="three" horiz-adv-x="535" d="M485 48Q485 -28 419 -86T237 -144Q196 -144 141 -129T55 -85Q72 -19 114 -19Q141 -19 164 -44T197 -101Q210 -105 239 -105Q293 -105 340 -63T388 30Q388 54 378 74T358 107T323 135T288 156T245
174T209 189L201 225Q210 229 233 240T268 256T298 274T325 299T341 329T349 370Q349 438 252 438Q175 438 113 378L81 410Q103 440 160 472T277 505Q356 505 400 472T444 381Q444 339 405 299T301 237Q340 225 366 213T422 180T469 125T485 48Z" />
<glyph unicode="4" glyph-name="four" horiz-adv-x="606" d="M571 207L561 60H424V-144H339V60H40V110L395 498L424 506V136H433Q474 136 494 141T516 150T521 167L529 207H571ZM339 136V360L133 136H339Z" />
<glyph unicode="5" glyph-name="five" horiz-adv-x="542" d="M492 61Q492 -20 424 -82T250 -144Q197 -144 142 -129T55 -85Q72 -19 114 -19Q141 -19 164 -44T197 -101Q227 -105 239 -105Q305 -105 349 -61T394 41Q394 134 275 171L133 216L175 493H338Q377 493
396 498T418 507T423 524L431 569H473L463 417H220L202 290L318 258Q492 209 492 61Z" />
<glyph unicode="6" glyph-name="six" horiz-adv-x="587" d="M532 227Q532 131 471 60T299 -12Q186 -12 123 68T60 266Q60 323 75 382T121 496T195 594T298 665T428 696V651Q348 646 286 599T195 490T161 366Q212 445 317 445Q419 445 475 381T532 227ZM437 225Q437
295 401 344T298 393Q233 393 199 342T165 219Q165 144 200 92T304 40Q369 40 403 95T437 225Z" />
<glyph unicode="7" glyph-name="seven" horiz-adv-x="529" d="M487 448L231 -144H125L407 417H194Q153 417 133 412T111 403T106 386L97 336H55L66 493H487V448Z" />
<glyph unicode="8" glyph-name="eight" horiz-adv-x="564" d="M509 165Q509 89 448 39T283 -12Q191 -12 123 38T55 179Q55 240 94 289T205 360Q94 433 94 527Q94 606 150 651T284 696Q360 696 415 654T470 536Q470 489 440 441T361 373Q509 296 509 165ZM403 543Q403
595 372 624T297 653T224 623T193 540Q193 461 313 395Q352 416 377 460T403 543ZM417 152Q417 170 413 186T403 215T385 240T365 262T338 282T310 300T279 318T248 336Q193 297 174 264T154 184Q154 115 194 78T290 40Q341 40 379 70T417 152Z" />
<glyph unicode="9" glyph-name="nine" horiz-adv-x="587" d="M527 247Q527 176 502 106T431 -26T306 -127T132 -168V-124Q240 -118 322 -42T428 128Q405 92 364 70T275 47Q170 47 113 112T55 269Q55 364 117 434T287 505Q400 505 463 431T527 247ZM427 267Q427
356 388 406T293 457Q235 457 194 409T153 276Q153 202 184 152T283 101T388 149T427 267Z" />
<glyph unicode=":" glyph-name="colon" horiz-adv-x="280" d="M209 437T209 409T189 362T140 342T91 361T71 409T91 457T140 477T188 457ZM209 83T209 55T189 8T140 -12T91 7T71 55T91 103T140 123T188 103Z" />
<glyph unicode=";" glyph-name="semicolon" horiz-adv-x="280" d="M209 437T209 409T189 362T140 342T91 361T71 409T91 457T140 477T188 457ZM209 59Q209 39 198 13L116 -160H69L139 -8Q111 -8 91 11T71 59T91 106T140 125T189 106T209 59Z" />
<glyph unicode="&lt;" glyph-name="less" horiz-adv-x="528" d="M406 52L107 231V289L406 468V392L186 260L406 128V52Z" />
<glyph unicode="=" glyph-name="equal" horiz-adv-x="599" d="M478 308H121V374H478V308ZM478 144H121V210H478V144Z" />
<glyph unicode="&gt;" glyph-name="greater" horiz-adv-x="528" d="M421 231L122 52V128L342 260L122 392V468L421 289V231Z" />
<glyph unicode="?" glyph-name="question" horiz-adv-x="478" d="M418 532Q418 474 380 418T267 322L252 314V230L196 213L156 353L203 374Q261 400 291 445T321 540T292 623T212 658Q206 658 196 656Q159 577 111 577Q69 577 52 643Q113 696 211 696Q308 696
363 649T418 532ZM288 51Q288 25 269 7T221 -12T174 6T155 51Q155 78 174 97T221 117T268 98T288 51Z" />
<glyph unicode="@" glyph-name="at" horiz-adv-x="1016" d="M971 320Q971 235 944 162T855 38T707 -12Q665 -12 637 5T609 57V86H604Q541 -12 439 -12Q353 -12 317 51T291 206Q304 314 369 395T535 477Q587 477 633 434L653 469H721L678 114Q673 70 682 54T728
37Q787 37 830 84T891 190T909 304Q909 468 812 557T573 647Q470 647 384 607T244 501T160 355T130 192Q130 98 166 21T281 -107T474 -157Q565 -157 649 -125L643 -177Q562 -210 462 -210Q361 -210 280 -176T148 -83T72 48T45 202Q45 293 78 379T174 537T336 652T559
696Q640 696 712 673T843 604T936 486T971 320ZM625 382Q589 425 540 425Q474 425 433 359T381 202Q373 135 395 89T469 43Q518 43 556 89T604 211L625 382Z" />
<glyph unicode="A" glyph-name="A" horiz-adv-x="754" d="M746 0H496V46H574L519 181H201L145 46H223V0H8V46H83L345 686H409L661 70Q670 46 706 46H746V0ZM501 224L359 571L218 224H501Z" />
<glyph unicode="B" glyph-name="B" horiz-adv-x="650" d="M589 177Q589 103 526 52T345 0H33V46H122V551Q122 593 118 613T108 636T91 640H33V686H314Q432 686 493 636T555 513Q555 455 512 405T397 347V344Q488 337 538 290T589 177ZM452 512Q452 568 413 604T287
640H221V363H318Q374 363 413 410T452 512ZM486 127T486 183T447 279T337 320H221V46H331Q403 46 444 86Z" />
<glyph unicode="C" glyph-name="C" horiz-adv-x="743" d="M677 477H625Q615 552 568 603T428 655Q318 655 234 568T150 344T230 123T430 37Q529 37 623 97L650 62Q560 -12 416 -12Q345 -12 279 11T160 78T74 190T42 344Q42 447 96 529T236 653T419 696Q522 696
616 643L623 696H677V477Z" />
<glyph unicode="D" glyph-name="D" horiz-adv-x="776" d="M726 344Q726 277 702 217T633 107T515 29T350 0H33V46H122V551Q122 593 118 613T108 636T91 640H33V686H365Q524 686 625 584T726 344ZM618 344Q618 402 602 453T555 547T471 615T348 640H221V46H340Q412
46 467 71T554 138T602 233T618 344Z" />
<glyph unicode="E" glyph-name="E" horiz-adv-x="601" d="M540 0H33V46H122V551Q122 593 118 613T108 636T91 640H33V686H518V508H457L441 640H221V363H367V469H417V212H367V320H221V46H467L486 175H540V0Z" />
<glyph unicode="F" glyph-name="F" horiz-adv-x="559" d="M508 508H447L431 640H221V358H357V469H407V212H357V315H221V135Q221 93 225 73T235 50T252 46H325V0H33V46H122V551Q122 593 118 613T108 636T91 640H33V686H508V508Z" />
<glyph unicode="G" glyph-name="G" horiz-adv-x="787" d="M764 270H703V132Q653 61 577 25T416 -12Q345 -12 279 11T160 78T74 190T42 344Q42 447 96 529T236 653T419 696Q522 696 616 643L623 696H677V477H625Q615 552 568 603T428 655Q318 655 234 568T150 344T230
123T430 37Q525 37 605 106V270H463V314H764V270Z" />
<glyph unicode="H" glyph-name="H" horiz-adv-x="815" d="M782 0H505V46H594V320H221V46H310V0H33V46H122V551Q122 593 118 613T108 636T91 640H33V686H310V640H221V363H594V640H505V686H782V640H693V135Q693 93 697 73T707 50T724 46H782V0Z" />
<glyph unicode="I" glyph-name="I" horiz-adv-x="343" d="M310 0H33V46H122V551Q122 593 118 613T108 636T91 640H33V686H310V640H221V135Q221 93 225 73T235 50T252 46H310V0Z" />
<glyph unicode="J" glyph-name="J" horiz-adv-x="345" d="M312 640H223V50Q223 -30 140 -102T-38 -183Q-57 -152 -57 -130Q-57 -99 -36 -84T17 -68Q57 -68 95 -85Q124 -51 124 25V551Q124 593 120 613T110 636T93 640H35V686H312V640Z" />
<glyph unicode="K" glyph-name="K" horiz-adv-x="725" d="M721 0H564L302 353L221 270V46H310V0H33V46H122V551Q122 593 118 613T108 636T91 640H33V686H221V347L524 640H436V686H667V640H633Q605 640 593 629L374 422L625 82Q648 52 659 48Q663 46 667 46H721V0Z" />
<glyph unicode="L" glyph-name="L" horiz-adv-x="577" d="M526 0H33V46H122V551Q122 593 118 613T108 636T91 640H33V686H310V640H221V46H453L472 175H526V0Z" />
<glyph unicode="M" glyph-name="M" horiz-adv-x="978" d="M945 0H668V46H757V633L461 0L442 -7L188 558V46H277V0H33V46H122V551Q122 593 118 613T108 636T91 640H33V686H234V663L467 144L704 663V686H945V640H856V135Q856 93 860 73T870 50T887 46H945V0Z" />
<glyph unicode="N" glyph-name="N" horiz-adv-x="817" d="M784 640H695V0H643L188 546V46H277V0H33V46H122V551Q122 593 118 613T108 636T91 640H33V686H195L629 164V640H540V686H784V640Z" />
<glyph unicode="O" glyph-name="O" horiz-adv-x="807" d="M765 338Q765 249 722 170T594 40T404 -12T215 39T86 170T42 338Q42 423 75 493T162 607T277 673T403 696T528 673T644 607T731 494T765 338ZM657 343Q657 487 582 568T404 649T226 568T150 343T225 120T403
40T581 120T657 343Z" />
<glyph unicode="P" glyph-name="P" horiz-adv-x="604" d="M556 511Q556 429 492 371T306 312H221V135Q221 93 225 73T235 50T252 46H310V0H33V46H122V551Q122 593 118 613T108 636T91 640H33V686H315Q444 686 500 637T556 511ZM458 499Q458 561 421 600T304 640H221V355H302Q373
355 415 397T458 499Z" />
<glyph unicode="Q" glyph-name="Q" horiz-adv-x="807" d="M797 -147L690 -170Q638 -183 609 -183Q541 -183 485 -129L363 -10Q266 0 191 54T79 183T42 338Q42 423 75 493T162 607T277 673T403 696T528 673T644 607T731 494T765 338Q765 269 739 207T672 103T581
32T482 -4L610 -84Q647 -107 728 -107H797V-147ZM657 343Q657 487 582 568T404 649T226 568T150 343T225 120T403 40T581 120T657 343Z" />
<glyph unicode="R" glyph-name="R" horiz-adv-x="663" d="M659 0H508Q379 230 304 312H221V135Q221 93 225 73T235 50T252 46H310V0H33V46H122V551Q122 593 118 613T108 636T91 640H33V686H315Q444 686 500 637T556 511T511 390T401 330V326Q417 310 433 289T469
238T500 190T536 132T567 82Q590 46 609 46H659V0ZM458 498Q458 560 421 600T304 640H221V355H302Q373 355 415 397T458 498Z" />
<glyph unicode="S" glyph-name="S" horiz-adv-x="622" d="M549 170Q549 80 482 34T318 -12Q204 -12 129 54L121 -12H70V203H119L145 110Q172 77 219 57T310 37Q374 37 411 67T449 159Q449 184 440 204T407 243T366 272T310 303Q212 354 178 384Q105 446 105 533Q105
599 156 647T298 696Q386 696 449 636L457 696H511V477H459Q454 505 450 523T434 568T408 613T368 642T311 655Q263 655 229 626T195 546Q195 508 223 474T280 422T354 380Q363 375 368 373Q377 368 401 356T435 338T464 320T493 299T515 275T534 246T544 212T549
170Z" />
<glyph unicode="T" glyph-name="T" horiz-adv-x="697" d="M646 492H587L569 640H398V135Q398 93 402 73T412 50T429 46H487V0H210V46H299V640H128L110 492H51V686H646V492Z" />
<glyph unicode="U" glyph-name="U" horiz-adv-x="788" d="M755 640H686V249Q686 123 608 56T404 -12T200 55T122 249V551Q122 593 118 613T107 636T89 640H33V686H290V640H221V248Q221 153 276 103T419 52T562 102T618 248V640H549V686H755V640Z" />
<glyph unicode="V" glyph-name="V" horiz-adv-x="748" d="M740 640H703Q682 640 673 636T658 618L402 -6H347L89 621Q81 640 52 640H8V686H251V640H181L394 120L606 640H537V686H740V640Z" />
<glyph unicode="W" glyph-name="W" horiz-adv-x="1120" d="M1112 640H1077Q1055 640 1045 636T1031 618L809 -6H754L560 513L366 -6H311L90 618Q83 640 51 640H8V686H251V640H181L357 123L563 691H607L805 135L978 640H909V686H1112V640Z" />
<glyph unicode="X" glyph-name="X" horiz-adv-x="717" d="M709 0H428V46H516L348 291L179 46H267V0H8V46H111L313 341L117 626Q111 635 105 637T82 640H25V686H305V640H221L377 413L534 640H450V686H693V640H603L412 362L617 65Q624 55 631 51T644 47T662 46H709V0Z" />
<glyph unicode="Y" glyph-name="Y" horiz-adv-x="703" d="M695 640H655Q623 640 610 620L401 311V135Q401 93 405 73T415 50T432 46H509V0H194V46H302V311L94 618Q80 640 50 640H8V686H249V640H179L368 361L557 640H488V686H695V640Z" />
<glyph unicode="Z" glyph-name="Z" horiz-adv-x="629" d="M579 0H38V50L444 640H157L139 492H80V686H555V632L151 46H502L520 195H579V0Z" />
<glyph unicode="[" glyph-name="bracketleft" horiz-adv-x="338" d="M305 -90H98V775H305V721H179V-35H305V-90Z" />
<glyph unicode="\" glyph-name="backslash" horiz-adv-x="337" d="M347 -12H277L-10 696H61L347 -12Z" />
<glyph unicode="]" glyph-name="bracketright" horiz-adv-x="338" d="M240 -90H33V-35H159V721H33V775H240V-90Z" />
<glyph unicode="^" glyph-name="asciicircum" horiz-adv-x="570" d="M482 496H407L285 614L163 496H88L253 686H317L482 496Z" />
<glyph unicode="_" glyph-name="underscore" horiz-adv-x="500" d="M525 -128H-25V-79H525V-128Z" />
<glyph unicode="`" glyph-name="grave" horiz-adv-x="524" d="M366 531H346L159 605V686H200L366 569V531Z" />
<glyph unicode="a" glyph-name="a" horiz-adv-x="547" d="M527 4Q493 -12 461 -12Q393 -12 381 49L374 86H370Q319 -12 217 -12Q131 -12 87 49T42 202Q42 267 67 328T145 433T264 477Q316 477 367 434L383 469H451V126Q451 69 456 52T480 35Q490 35 527 43V4ZM366
211V382Q324 425 275 425Q208 425 171 357T133 202Q133 135 161 89T240 43Q290 43 328 89T366 211Z" />
<glyph unicode="b" glyph-name="b" horiz-adv-x="532" d="M490 258Q490 151 426 70T245 -12Q151 -12 66 39Q71 124 71 135V608Q71 650 67 670T57 693T40 696H0V741L156 748V384Q208 477 299 477Q374 477 432 416T490 258ZM399 257Q399 325 368 373T285 422Q235
422 196 376T156 254V57Q190 40 250 40Q300 40 335 72T384 152T399 257Z" />
<glyph unicode="c" glyph-name="c" horiz-adv-x="484" d="M445 68Q417 32 373 10T277 -12Q161 -12 100 59T38 230Q38 329 103 403T277 477Q375 477 436 424Q419 358 377 358Q348 358 324 386T292 447Q219 447 175 382T131 231Q131 151 173 96T295 40Q362 40 424
89L445 68Z" />
<glyph unicode="d" glyph-name="d" horiz-adv-x="556" d="M536 4Q500 -12 469 -12Q404 -12 391 48L383 86H379Q355 37 312 13T228 -12Q137 -12 90 51T42 206Q42 273 67 334T143 436T260 477Q299 477 321 468T375 434V608Q375 650 371 670T361 693T344 696H304V741L460
748V126Q460 69 464 52T487 35Q501 35 536 43V4ZM375 211V382Q333 425 280 425Q213 425 173 361T133 214Q133 142 162 93T245 43Q296 43 335 89T375 211Z" />
<glyph unicode="e" glyph-name="e" horiz-adv-x="484" d="M445 68Q417 32 373 10T277 -12Q161 -12 100 59T38 230Q38 325 101 401T267 477Q337 477 387 437T437 325Q437 278 420 240H129Q126 155 170 98T295 40Q362 40 424 89L445 68ZM360 333Q360 374 334 406T269
438Q189 438 151 345Q139 315 134 285H350Q360 304 360 333Z" />
<glyph unicode="f" glyph-name="f" horiz-adv-x="365" d="M415 698Q398 637 357 637Q328 637 304 664T273 720Q208 716 208 626V469H334V425H208V40H299V0H32V40H123V425H32V469H123V577Q123 662 170 704T290 746Q356 746 415 698Z" />
<glyph unicode="g" glyph-name="g" horiz-adv-x="525" d="M517 -86Q517 -155 438 -194T252 -233Q160 -233 95 -198T29 -100Q29 -66 57 -38T136 3Q84 30 84 80Q84 106 102 127T155 158Q109 178 85 220T60 311Q60 378 111 427T253 477Q272 477 293 473T326 463L338
458L485 469V425L412 410Q442 356 442 306Q442 233 390 185T253 136L220 139Q193 142 178 132T163 105Q163 91 173 80T203 65L368 39Q441 28 479 -8T517 -86ZM364 305Q364 358 335 398T255 438Q204 438 174 398T144 305Q144 244 177 210T255 175Q299 175 331 209T364
305ZM434 -94Q434 -73 414 -57T355 -34L209 -11Q153 -22 126 -44T99 -93Q99 -132 145 -163T257 -195Q329 -195 381 -168T434 -94Z" />
<glyph unicode="h" glyph-name="h" horiz-adv-x="579" d="M560 0H343V40H409V331Q409 425 341 425Q326 425 310 418T287 405T263 384L177 307V40H243V0H26V40H92V608Q92 650 88 670T79 693T62 696H21V741L177 748V371L243 429Q274 456 299 466T361 477Q419 477
456 446T494 354V40H560V0Z" />
<glyph unicode="i" glyph-name="i" horiz-adv-x="303" d="M217 662T217 638T199 597T156 580Q130 580 112 597T94 638T112 679T156 696Q181 696 199 679ZM284 0H37V40H118V337Q118 379 114 399T104 422T87 425H32V469L203 477V40H284V0Z" />
<glyph unicode="j" glyph-name="j" horiz-adv-x="297" d="M217 662T217 638T199 597T156 580Q130 580 112 597T94 638T112 679T156 696Q181 696 199 679ZM203 -13Q203 -59 179 -106T103 -191T-18 -233Q-35 -205 -35 -186Q-35 -162 -18 -150T24 -138T89 -157Q118
-114 118 -38V337Q118 379 114 399T104 422T87 425H32V469L203 477V-13Z" />
<glyph unicode="k" glyph-name="k" horiz-adv-x="565" d="M546 0H420L240 236L177 178V40H243V0H26V40H92V608Q92 650 88 670T78 693T61 696H21V741L177 748V235L385 425L296 434V469H503V425H447L296 286L460 68Q483 37 504 37L546 41V0Z" />
<glyph unicode="l" glyph-name="l" horiz-adv-x="297" d="M277 0H30V40H111V608Q111 650 107 670T97 693T80 696H25V741L196 748V40H277V0Z" />
<glyph unicode="m" glyph-name="m" horiz-adv-x="887" d="M868 0H651V40H717V331Q717 379 703 402T656 425Q648 425 640 423T627 419T614 412T604 404T592 394T581 384L495 307V40H561V0H344V40H410V331Q410 379 396 402T349 425Q341 425 333 423T320 419T307
412T297 404T285 394T274 384L188 307V40H254V0H37V40H103V337Q103 379 99 399T90 422T73 425H32V469L178 477L188 371L253 428Q285 456 309 466T369 477Q422 477 455 450T495 371L559 427Q591 455 615 466T676 477Q733 477 767 446T802 354V40H868V0Z" />
<glyph unicode="n" glyph-name="n" horiz-adv-x="590" d="M571 0H354V40H420V331Q420 425 352 425Q337 425 321 418T298 405T274 384L188 307V40H254V0H37V40H103V337Q103 379 99 399T90 422T73 425H32V469L178 477L188 371L254 429Q285 456 310 466T372 477Q430
477 467 446T505 354V40H571V0Z" />
<glyph unicode="o" glyph-name="o" horiz-adv-x="524" d="M486 233Q486 124 423 56T262 -12T101 56T38 233Q38 348 105 412T262 477T419 413T486 233ZM395 232Q395 314 360 375T262 436T165 375T129 232Q129 152 163 95T262 37T360 94T395 232Z" />
<glyph unicode="p" glyph-name="p" horiz-adv-x="545" d="M503 258Q503 151 439 70T258 -12Q238 -12 208 -6T169 7V-185H235V-225H18V-185H84V337Q84 379 80 399T70 422T53 425H13V469L158 477L169 384Q221 477 312 477Q387 477 445 416T503 258ZM412 257Q412
325 381 373T298 422Q248 422 209 376T169 254V57Q203 40 263 40Q336 40 374 105T412 257Z" />
<glyph unicode="q" glyph-name="q" horiz-adv-x="534" d="M526 -225H309V-185H375V79Q350 34 309 11T228 -12Q137 -12 90 51T42 206Q42 273 67 334T143 436T260 477Q299 477 321 468T375 434Q400 436 409 457L423 492H460V-185H526V-225ZM375 211V382Q333 425
280 425Q213 425 173 361T133 214Q133 142 162 93T245 43Q296 43 335 89T375 211Z" />
<glyph unicode="r" glyph-name="r" horiz-adv-x="410" d="M382 437Q382 408 358 394T306 380Q283 380 261 385L189 287V40H255V0H38V40H104V337Q104 379 100 399T91 422T74 425H33V469L179 477L188 360L240 418Q287 471 349 492Q382 460 382 437Z" />
<glyph unicode="s" glyph-name="s" horiz-adv-x="486" d="M436 128Q436 56 380 20T245 -17Q195 -17 146 0T68 40V158H113L131 65Q186 27 245 27Q291 27 323 48T356 105Q356 116 353 126T341 144T324 158T301 171T276 182T247 193T218 205Q154 231 115 263T76 347Q76
410 131 443T258 477Q353 477 409 428Q394 366 354 366Q327 366 305 392T274 448Q219 448 191 426T163 369Q163 317 249 283Q260 279 288 269T332 253T370 235T405 209T426 174T436 128Z" />
<glyph unicode="t" glyph-name="t" horiz-adv-x="404" d="M371 27Q295 -12 244 -12Q111 -12 111 116V425H19V469L111 477L126 615H196V469H335V425H196V115Q196 72 215 58T276 44Q291 44 318 50T356 63L371 27Z" />
<glyph unicode="u" glyph-name="u" horiz-adv-x="587" d="M568 4Q536 -12 502 -12Q434 -12 422 50L412 102H410L336 38Q278 -12 217 -12Q161 -12 126 20T90 111V337Q90 379 86 399T76 422T59 425H19V469L175 477V134Q175 88 192 64T236 40Q270 40 310 77L407 164V337Q407
379 403 399T393 422T376 425H336V469L492 477V126Q492 70 497 53T523 35Q528 35 568 43V4Z" />
<glyph unicode="v" glyph-name="v" horiz-adv-x="556" d="M537 425H481L296 0H260L75 425H19V469H221V425H165L295 126L425 425H369V469H537V425Z" />
<glyph unicode="w" glyph-name="w" horiz-adv-x="784" d="M765 425H709L549 0H513L392 325L271 0H235L75 425H19V469H221V425H165L269 127L391 469H428L547 127L653 425H597V469H765V425Z" />
<glyph unicode="x" glyph-name="x" horiz-adv-x="570" d="M551 0H345V40H404L274 193L142 40H201V0H19V40H80L243 230L74 425H30V469H235V425H179L297 287L415 425H359V469H540V425H476L326 251L508 40H551V0Z" />
<glyph unicode="y" glyph-name="y" horiz-adv-x="557" d="M538 425H482L270 -66Q230 -159 182 -196T56 -233Q39 -205 39 -186Q39 -162 56 -150T98 -138T163 -157Q194 -122 218 -66L253 16L75 425H19V469H221V425H165L295 124L428 425H372V469H538V425Z" />
<glyph unicode="z" glyph-name="z" horiz-adv-x="499" d="M455 0H40V35L347 435H122L108 328H59V469H437V429L142 43H392L406 149H455V0Z" />
<glyph unicode="{" glyph-name="braceleft" horiz-adv-x="331" d="M271 -144H197Q145 -127 122 -96T109 -27L171 180Q173 187 174 193T174 205T171 215T165 223T158 230T148 238T138 244T125 251T112 259L15 313V321L112 375Q116 377 124 381T135 388T145 394T154
400T161 406T167 414T171 422T174 431T174 441T171 454L109 658Q98 694 121 726T197 775H271Q226 755 204 724T194 658L262 475Q269 455 269 438T266 408T250 385T231 368T205 355T181 346T158 339L90 319V315L158 295Q226 274 249 251Q283 216 262 159L194 -27Q181
-62 203 -93T271 -144Z" />
<glyph unicode="|" glyph-name="bar" horiz-adv-x="339" d="M204 -144H135V741H204V-144Z" />
<glyph unicode="}" glyph-name="braceright" horiz-adv-x="331" d="M316 313L219 259Q215 257 207 253T196 246T186 240T177 234T170 228T164 220T160 212T157 203T157 193T160 180L222 -27Q233 -64 210 -95T134 -144H60Q105 -124 127 -93T137 -27L69 159Q62 179
62 196T65 226T81 249T100 266T126 279T150 288T173 295L241 315V319L173 339Q105 360 82 383Q48 418 69 475L137 658Q150 693 128 724T60 775H134Q187 758 210 726T222 658L160 454Q158 447 157 441T157 429T160 419T166 411T173 404T183 396T193 390T206 383T219
375L316 321V313Z" />
<glyph unicode="~" glyph-name="asciitilde" horiz-adv-x="518" d="M452 374L430 348Q386 297 345 297Q301 297 277 321L220 377Q190 406 159 406Q129 406 97 378L66 351V400L88 426Q132 477 172 477Q215 477 241 451L298 394Q324 368 358 368Q391 368 421 395L452
423V374Z" />
</font>
</defs>
</svg>
